<svg xmlns="http://www.w3.org/2000/svg" xmlns:xlink="http://www.w3.org/1999/xlink" width="500" zoomAndPan="magnify" viewBox="0 0 375 374.999991" height="500" preserveAspectRatio="xMidYMid meet" version="1.2"><defs><clipPath id="2afe472fa4"><path d="M 91 21.539062 L 194 21.539062 L 194 336 L 91 336 Z M 91 21.539062 "/></clipPath></defs><g id="eec0160803"><path style=" stroke:none;fill-rule:nonzero;fill:#ffffff;fill-opacity:1;" d="M 133.605469 292.523438 C 119 250 140.367188 221.316406 163.433594 194.726562 C 185.085938 169.761719 209.632812 141.460938 203.160156 90.417969 C 202.625 86.183594 201.742188 82.175781 200.609375 78.34375 C 263.273438 144.074219 190.074219 264.175781 216.992188 262.679688 C 229.292969 261.992188 246.4375 231.386719 244.046875 158.132812 C 244.046875 158.132812 284.792969 212.761719 276.535156 267.296875 C 271.472656 300.714844 242.191406 342.46875 188.445312 334.503906 C 163.886719 330.863281 140.933594 313.871094 133.605469 292.523438 "/><g clip-rule="nonzero" clip-path="url(#2afe472fa4)"><path style=" stroke:none;fill-rule:nonzero;fill:#8c52ff;fill-opacity:1;" d="M 184.242188 21.605469 C 184.242188 21.605469 180.738281 41.964844 189.011719 72.355469 C 197.183594 102.375 192.621094 125.648438 187.855469 138.554688 C 173.65625 177.011719 137.921875 193.757812 122.191406 234.230469 C 115.824219 250.605469 102.488281 306.734375 164.113281 335.5 C 164.113281 335.5 114.042969 325.144531 97.09375 280.464844 C 83.359375 244.253906 95.5 198.558594 133.40625 156.972656 C 188.738281 96.265625 157.191406 55.503906 184.242188 21.605469 "/></g></g></svg>